# xmcd CD database file
#
# Track frame offsets:
#	182
#	21850
#	44702
#
# Disc length: 885 seconds
#
# Revision: 3
# Processed by: cddbd v1.5PL3 Copyright (c) Steve Scherf et al.
# Submitted via: CDex 1.40Beta8
#
DISCID=22037303
DTITLE=ASKA - ID
DYEAR=2003
DGENRE=Pop
TTITLE0=ID
TTITLE1=風の引力
TTITLE2=ID (Instrumental)
EXTD=YEAR: 2003 ID3G: 13
EXTT0=
EXTT1=
EXTT2=
PLAYORDER=
